<?xml version="1.0" encoding="UTF-8" standalone="no"?>
<svg
   class="hero_custom__headline__text--V"
   viewBox="0 0 32 32"
   version="1.1"
   id="svg23675"
   width="32"
   height="32"
   xmlns="http://www.w3.org/2000/svg"
   xmlns:svg="http://www.w3.org/2000/svg">
  <defs
     id="defs23679" />
  <path
     id="path2620"
     style="fill:#ff7f2a;fill-opacity:1;stroke-width:0.0548693"
     d="M 15.230525,3.0808872 C 13.648272,3.0515882 12.170163,3.292978 10.626192,3.827225 8.6112536,4.524437 6.8821026,5.608456 5.4377046,7.080974 c -1.01607,1.035851 -1.836232,2.200993 -2.557644,3.632657 -0.503605,0.999419 -0.774007,1.71586 -1.040568,2.751405 -0.647296,2.514636 -0.578083,4.828225 0.218161,7.235176 0.344461,1.041267 0.605043,1.632203 1.413736,3.204948 l 0.604248,1.175483 -0.02296,0.447803 c -0.02045,0.389648 -0.05355,0.508326 -0.252606,0.909958 -0.256123,0.516774 -0.754112,1.203909 -1.47976,2.040949 -0.267578,0.308655 -0.506773,0.595667 -0.532483,0.638693 -0.0615,0.102912 0.65093,-0.39265 1.205623,-0.838195 0.557949,-0.448161 1.498401,-1.418546 1.911774,-1.972056 0.175604,-0.235135 0.765799,-1.111469 1.310398,-1.947655 1.187796,-1.823761 1.803648,-2.657505 2.167252,-2.932249 0.359114,-0.271351 0.800627,-0.467914 1.258728,-0.561189 0.4962124,-0.101034 1.7482614,-0.193761 2.6136194,-0.193761 0.580314,0 0.697539,0.01372 0.697539,0.08181 0,0.112049 -0.268097,0.402012 -2.582043,2.798768 -1.1071454,1.146767 -2.1795244,2.269592 -2.3825414,2.495928 -1.021693,1.139041 -1.033014,1.520317 -0.06889,2.197392 1.330353,0.934269 4.1434864,1.887537 6.1572914,2.085441 0.561984,0.05523 1.831842,0.01499 2.739923,-0.08755 2.962534,-0.334526 5.663662,-1.654588 7.853775,-3.836466 2.219984,-2.211636 3.60002,-4.99634 4.037402,-8.14944 0.04241,-0.305754 0.07128,-1.019998 0.07033,-1.72806 -0.0018,-1.360282 -0.07886,-2.00399 -0.380346,-3.18342 C 28.176465,12.481987 28.039406,12.131949 27.260932,10.439495 26.302973,8.356826 26.2201,8.078052 26.359586,7.41252 26.528984,6.604268 26.834389,6.049613 27.932637,4.552035 28.280073,4.078268 28.624421,3.6052 28.699069,3.499985 l 0.13635,-0.192326 -0.16362,0.117692 c -0.484748,0.347211 -1.8625,1.637568 -2.449999,2.29499 -0.67203,0.752016 -0.904449,1.105817 -1.832835,2.77724 -0.971452,1.748959 -1.480847,2.53928 -1.972055,3.059986 -0.658045,0.697562 -1.321458,1.049692 -2.175863,1.156825 -0.537256,0.06736 -2.730715,0.07507 -2.833215,0.01004 -0.08743,-0.05547 0.218412,-0.389996 2.556209,-2.801639 2.489015,-2.567638 2.938124,-3.092355 3.07721,-3.596776 C 23.220723,5.675124 22.725865,5.20101 21.017526,4.384103 19.322452,3.573539 18.02169,3.24929 15.915155,3.1110216 15.684366,3.0958766 15.45657,3.0850666 15.230534,3.0808776 Z M 16.134742,7.65508 c 0.24897,-4e-6 0.527853,0.0069 0.776479,0.01866 0.248626,0.01174 0.467379,0.02812 0.595635,0.04593 0.136693,0.01898 0.273365,0.04237 0.401875,0.06746 0.128509,0.02509 0.24864,0.05081 0.35164,0.07751 0.103,0.0267 0.188137,0.05368 0.248301,0.07751 0.03008,0.01191 0.0542,0.02266 0.07033,0.03301 0.01612,0.01035 0.0244,0.02048 0.0244,0.0287 0,0.0097 -0.0084,0.02772 -0.02727,0.05597 -0.01886,0.02825 -0.04822,0.06625 -0.08755,0.114821 -0.07866,0.09714 -0.200057,0.237112 -0.370299,0.426274 -0.340482,0.378323 -0.876313,0.954403 -1.660603,1.786906 -0.771652,0.819092 -1.352533,1.437199 -1.789776,1.911775 -0.218622,0.237288 -0.401306,0.437894 -0.554013,0.611423 -0.152706,0.173529 -0.276022,0.32025 -0.374604,0.444932 -0.09858,0.124683 -0.171958,0.22788 -0.228207,0.318629 -0.02812,0.04538 -0.05201,0.08805 -0.07177,0.127739 -0.01975,0.03969 -0.03595,0.07609 -0.0488,0.111951 -0.01285,0.03587 -0.02271,0.07087 -0.03014,0.104774 -0.0074,0.03391 -0.01231,0.06666 -0.01578,0.100469 -0.007,0.06762 -0.0072,0.136858 -0.0072,0.215289 0,0.06293 0.0016,0.123796 0.0072,0.180844 0.0055,0.05705 0.01429,0.110175 0.02584,0.162185 0.01154,0.05201 0.02647,0.102878 0.0445,0.150703 0.01803,0.04782 0.03959,0.0933 0.06459,0.137785 0.02499,0.04449 0.05368,0.08717 0.08612,0.129175 0.03244,0.042 0.06872,0.08306 0.10908,0.123432 0.04036,0.04037 0.08473,0.08097 0.13348,0.120563 0.04875,0.03959 0.101685,0.07803 0.159315,0.117692 l 0.219595,0.150702 4.387608,0.03876 4.389043,0.03732 0.330112,0.185149 c 0.07926,0.04433 0.153993,0.08939 0.222466,0.134915 0.06847,0.04552 0.131523,0.09215 0.189455,0.139221 0.05793,0.04707 0.110234,0.09456 0.15788,0.143526 0.04765,0.04896 0.09013,0.09951 0.127738,0.150704 0.03761,0.0512 0.06977,0.102673 0.0976,0.156443 0.02783,0.05377 0.05203,0.1098 0.07033,0.166491 0.0183,0.05669 0.03117,0.113712 0.04019,0.173667 0.009,0.05996 0.01292,0.121585 0.01292,0.18515 0,0.0442 -0.0023,0.08931 -0.0086,0.134915 -0.0064,0.0456 -0.0158,0.09184 -0.0287,0.139221 -0.01291,0.04738 -0.02915,0.09687 -0.0488,0.146397 -0.01965,0.04953 -0.04375,0.100086 -0.07033,0.152138 -0.02658,0.05205 -0.05672,0.104365 -0.09042,0.159314 -0.0337,0.05495 -0.07093,0.112575 -0.11195,0.170797 -0.08204,0.116444 -0.178918,0.238518 -0.291359,0.370299 -0.115203,0.135016 -0.277625,0.316238 -0.476508,0.531048 -0.198885,0.214809 -0.433465,0.463266 -0.693234,0.734856 -0.519538,0.543179 -1.137647,1.177647 -1.763942,1.809871 -0.626295,0.632223 -1.260628,1.262656 -1.811305,1.799822 -0.275338,0.268584 -0.529841,0.51451 -0.75208,0.72481 -0.222238,0.2103 -0.411976,0.384821 -0.558318,0.513825 -0.126951,0.111911 -0.243221,0.21195 -0.350205,0.301406 -0.106985,0.08946 -0.205627,0.168487 -0.298536,0.238254 -0.09291,0.06977 -0.179368,0.130872 -0.264089,0.183714 -0.08472,0.05284 -0.167312,0.09767 -0.249735,0.13635 -0.08242,0.03868 -0.165158,0.07032 -0.251172,0.0976 -0.08601,0.02728 -0.17577,0.05024 -0.271265,0.06889 -0.0955,0.01865 -0.196282,0.03315 -0.307148,0.04593 -0.110864,0.01278 -0.230997,0.02334 -0.363121,0.03301 -0.191638,0.01402 -0.347657,0.02466 -0.490861,0.03158 -0.143205,0.0069 -0.27436,0.01033 -0.413357,0.01004 -0.138997,-2.88e-4 -0.286011,-0.0039 -0.465026,-0.01149 -0.179015,-0.0076 -0.389788,-0.01948 -0.653046,-0.03444 -0.176401,-0.01003 -0.342815,-0.022 -0.493731,-0.03732 -0.150918,-0.01532 -0.286677,-0.03417 -0.401875,-0.05311 -0.115197,-0.01894 -0.2092,-0.03798 -0.278442,-0.05885 -0.03462,-0.01044 -0.06347,-0.02097 -0.08468,-0.03158 -0.02122,-0.0106 -0.0351,-0.02246 -0.04162,-0.03301 -0.0059,-0.0095 -0.0068,-0.02188 0,-0.04162 0.0068,-0.01975 0.02088,-0.04558 0.04593,-0.08181 0.05009,-0.07247 0.143433,-0.184244 0.299971,-0.360253 0.156538,-0.176007 0.377064,-0.416674 0.684621,-0.746338 0.307558,-0.329663 0.701036,-0.748253 1.204189,-1.281692 0.697157,-0.739121 1.227345,-1.302447 1.629027,-1.739543 0.20084,-0.218547 0.368815,-0.406034 0.510954,-0.568365 0.142139,-0.16233 0.25809,-0.29869 0.35164,-0.417662 0.09355,-0.118972 0.164524,-0.22011 0.219596,-0.308583 0.02754,-0.04424 0.05195,-0.08584 0.07177,-0.124867 0.01981,-0.03902 0.03544,-0.0751 0.0488,-0.110516 0.01335,-0.03542 0.02342,-0.06992 0.03158,-0.103339 0.0082,-0.03342 0.01443,-0.06601 0.01866,-0.09903 0.0084,-0.06605 0.01117,-0.132548 0.01149,-0.206678 1.85e-4,-0.04441 -0.0032,-0.0885 -0.0072,-0.130609 -0.004,-0.04211 -0.01024,-0.08334 -0.01866,-0.123433 -0.0084,-0.04009 -0.01867,-0.07791 -0.03158,-0.116256 -0.01291,-0.03835 -0.02839,-0.07651 -0.04593,-0.113387 -0.01754,-0.03688 -0.03655,-0.0734 -0.05885,-0.109079 -0.02229,-0.03569 -0.04745,-0.07001 -0.07463,-0.104775 -0.05437,-0.06952 -0.119071,-0.137765 -0.193761,-0.205243 -0.05319,-0.04805 -0.09351,-0.09026 -0.133479,-0.126303 -0.03998,-0.03604 -0.07897,-0.06593 -0.126304,-0.09186 -0.02367,-0.01296 -0.04957,-0.0251 -0.07894,-0.03588 -0.02937,-0.01079 -0.06283,-0.01986 -0.100469,-0.0287 -0.07528,-0.01769 -0.168993,-0.03172 -0.292794,-0.04305 -0.123801,-0.01134 -0.27643,-0.0204 -0.469332,-0.02727 -0.192903,-0.0069 -0.426439,-0.01293 -0.709022,-0.01723 -0.565165,-0.0086 -1.329438,-0.01341 -2.3768,-0.02296 -1.029093,-0.0094 -1.859388,-0.01882 -2.5289384,-0.03014 -0.669551,-0.01132 -1.178268,-0.02493 -1.568746,-0.04162 -0.195239,-0.0083 -0.361784,-0.01694 -0.502344,-0.02727 -0.140559,-0.01033 -0.255702,-0.0217 -0.351639,-0.03444 -0.09594,-0.01275 -0.172573,-0.02746 -0.233948,-0.04305 -0.06138,-0.01559 -0.10809,-0.0328 -0.144963,-0.05167 -0.08683,-0.04444 -0.167179,-0.09174 -0.241124,-0.143527 -0.07395,-0.05179 -0.141048,-0.107097 -0.202373,-0.16649 -0.06132,-0.05939 -0.116087,-0.123637 -0.165055,-0.190891 -0.04897,-0.06725 -0.0923,-0.138484 -0.129175,-0.213855 -0.03172,-0.06481 -0.0556,-0.118357 -0.07463,-0.167926 -0.01903,-0.04957 -0.0331,-0.0946 -0.04162,-0.140656 -0.0085,-0.04606 -0.01272,-0.09354 -0.01292,-0.147832 -1.96e-4,-0.05429 0.0041,-0.115199 0.01005,-0.189455 0.0076,-0.09495 0.02571,-0.205062 0.0488,-0.305712 0.01155,-0.05032 0.02399,-0.09802 0.03732,-0.140656 0.01332,-0.04264 0.02792,-0.0802 0.04162,-0.10908 0.0107,-0.02255 0.04508,-0.06899 0.101904,-0.13635 0.05683,-0.06736 0.135406,-0.154917 0.232513,-0.261219 0.194216,-0.212603 0.463391,-0.497839 0.783656,-0.831019 0.320265,-0.33318 0.69125,-0.715545 1.090802,-1.122378 0.399552,-0.406833 0.828085,-0.838081 1.260164,-1.271646 0.4320774,-0.433563 0.8681574,-0.86832 1.2859984,-1.281692 0.417841,-0.413372 0.817205,-0.804828 1.174047,-1.151084 0.356842,-0.346256 0.670925,-0.6476 0.920006,-0.879818 0.12454,-0.116108 0.232667,-0.215428 0.321499,-0.294229 0.08883,-0.0788 0.157964,-0.138039 0.205243,-0.173667 0.09202,-0.06934 0.181762,-0.132233 0.26983,-0.189455 0.08807,-0.05722 0.174933,-0.107484 0.262654,-0.153574 0.08772,-0.04609 0.175984,-0.08749 0.266959,-0.123432 0.09098,-0.03594 0.184916,-0.06651 0.282748,-0.09329 0.09783,-0.02679 0.200292,-0.05029 0.308582,-0.06889 0.10829,-0.01861 0.222114,-0.03307 0.344464,-0.0445 0.12235,-0.01142 0.25325,-0.01918 0.393262,-0.0244 0.140013,-0.0052 0.289398,-0.0072 0.450674,-0.0072 z" />
</svg>
